<?xml version="1.0" encoding="UTF-8" standalone="no"?>
<svg
   xmlns:dc="http://purl.org/dc/elements/1.1/"
   xmlns:cc="http://creativecommons.org/ns#"
   xmlns:rdf="http://www.w3.org/1999/02/22-rdf-syntax-ns#"
   xmlns:svg="http://www.w3.org/2000/svg"
   xmlns="http://www.w3.org/2000/svg"
   version="1.1"
   id="svg842"
   width="102"
   height="118"
   viewBox="0 0 102 118">
  <defs
     id="defs846" />
  <g
     id="layer1"
     style="display:inline;opacity:1">
    <path
       style="display:inline;fill:#515BA4;fill-opacity:1;stroke:none;stroke-width:0.0377953;stroke-linecap:butt;stroke-linejoin:miter;stroke-miterlimit:4;stroke-dasharray:none;stroke-opacity:1"
       d="M 51.5022,4.0782872 2.298096,111.73882 C 14.519077,113.28803 26.323039,103.70158 35.100832,89.17963 43.298277,73.441197 46.035078,64.602948 51.5022,52.314608 l 17.283342,37.790246 c 8.9514,-0.826763 14.264993,-5.882543 14.319506,-17.462803 z"
       id="path910" />
  </g>
  <g
     id="layer2"
     style="display:inline;mix-blend-mode:normal">
    <path
       style="fill:none;stroke:none;stroke-width:1px;stroke-linecap:butt;stroke-linejoin:miter;stroke-opacity:1"
       d="m 74.837914,61.322353 15.199592,36.08595 C 77.342334,103.5675 69.349898,96.999906 65.028432,93.24068 42.224707,75.412708 30.511399,60.387548 13.283417,43.9687 l 45.368853,31.298554 6.376162,3.098866 c 10.628294,-0.658688 9.563176,-7.658846 9.809482,-17.043767 z"
       id="path862" />
    <path
       style="fill:#909BEF;fill-opacity:1;stroke:none;stroke-width:0.0377953;stroke-linecap:butt;stroke-linejoin:miter;stroke-miterlimit:4;stroke-dasharray:none;stroke-opacity:1"
       d="M 82.855048,71.985801 C 82.29794,82.975557 77.008695,88.455128 68.629292,89.729854 59.472057,88.439067 24.88173,56.958237 2.989653,40.550712 18.928218,57.25016 39.04803,85.5622 68.15969,101.99241 c 12.862849,7.47722 22.900542,9.83592 31.786721,9.35381 z"
       id="path967" />
  </g>
</svg>
